<?xml version="1.0" standalone="no"?>
<!DOCTYPE svg PUBLIC "-//W3C//DTD SVG 20010904//EN"
 "http://www.w3.org/TR/2001/REC-SVG-20010904/DTD/svg10.dtd">
<svg version="1.0" xmlns="http://www.w3.org/2000/svg"
 width="256.000000pt" height="256.000000pt" viewBox="0 0 256.000000 256.000000"
 preserveAspectRatio="xMidYMid meet">
<metadata>
Created by potrace 1.14, written by Peter Selinger 2001-2017
</metadata>
<g transform="translate(0.000000,256.000000) scale(0.100000,-0.100000)"
fill="#000000" stroke="none">
<path d="M1208 2445 c-2 -2 -30 -5 -63 -8 -162 -16 -378 -97 -510 -192 -71
-51 -198 -177 -256 -255 -58 -77 -131 -205 -158 -275 -13 -33 -27 -69 -32 -80
-27 -60 -50 -204 -51 -314 -1 -331 129 -632 382 -881 86 -85 94 -91 171 -141
143 -94 323 -161 474 -175 69 -7 224 -6 282 1 237 30 503 182 675 386 75 88
90 110 141 196 60 101 88 163 116 266 24 86 34 138 46 250 l6 57 -37 0 c-21 0
-34 3 -30 8 4 4 20 7 34 7 25 0 27 4 28 41 1 35 -6 95 -20 180 -15 86 -94 278
-156 382 -71 117 -208 264 -320 344 -131 92 -322 171 -470 194 -39 6 -247 13
-252 9z m1142 -1155 c0 -5 -10 -10 -22 -9 -22 0 -22 1 -3 9 11 5 21 9 23 9 1
1 2 -3 2 -9z"/>
</g>
</svg>
